<svg width="34" height="34" viewBox="0 0 34 34" fill="none" xmlns="http://www.w3.org/2000/svg">
<path d="M18.344 11H23V15.656H21.656V13.281L15.125 19.812L14.188 18.875L20.719 12.344H18.344V11ZM21.656 21.656V17H23V21.656C23 22.01 22.865 22.323 22.594 22.594C22.323 22.865 22.01 23 21.656 23H12.344C11.969 23 11.646 22.875 11.375 22.625C11.125 22.354 11 22.031 11 21.656V12.344C11 11.969 11.125 11.656 11.375 11.406C11.646 11.135 11.969 11 12.344 11H17V12.344H12.344V21.656H21.656Z" fill="#2C2C2C"/>
<path d="M3 2H31V0H3V2ZM32 3V31H34V3H32ZM31 32H3V34H31V32ZM2 31V3H0V31H2ZM3 32C2.448 32 2 31.552 2 31H0C0 32.657 1.343 34 3 34V32ZM32 31C32 31.552 31.552 32 31 32V34C32.657 34 34 32.657 34 31H32ZM31 2C31.552 2 32 2.448 32 3H34C34 1.343 32.657 0 31 0V2ZM3 0C1.343 0 0 1.343 0 3H2C2 2.448 2.448 2 3 2V0Z" fill="#2C2C2C"/>
</svg>
