<svg width="34" height="34" viewBox="0 0 34 34" fill="none" xmlns="http://www.w3.org/2000/svg">
<path d="M13.406 16.188C14.406 18.125 15.875 19.594 17.812 20.594L19.281 19.125C19.49 18.917 19.719 18.865 19.969 18.969C20.719 19.219 21.51 19.344 22.344 19.344C22.531 19.344 22.688 19.406 22.812 19.531C22.938 19.656 23 19.812 23 20V22.344C23 22.531 22.938 22.688 22.812 22.812C22.688 22.938 22.531 23 22.344 23C19.219 23 16.542 21.896 14.312 19.688C12.104 17.458 11 14.781 11 11.656C11 11.469 11.062 11.312 11.188 11.188C11.312 11.062 11.469 11 11.656 11H14C14.188 11 14.344 11.062 14.469 11.188C14.594 11.312 14.656 11.469 14.656 11.656C14.656 12.49 14.781 13.281 15.031 14.031C15.115 14.302 15.062 14.531 14.875 14.719L13.406 16.188Z" fill="#2C2C2C"/>
<path d="M3 2H31V0H3V2ZM32 3V31H34V3H32ZM31 32H3V34H31V32ZM2 31V3H0V31H2ZM3 32C2.448 32 2 31.552 2 31H0C0 32.657 1.343 34 3 34V32ZM32 31C32 31.552 31.552 32 31 32V34C32.657 34 34 32.657 34 31H32ZM31 2C31.552 2 32 2.448 32 3H34C34 1.343 32.657 0 31 0V2ZM3 0C1.343 0 0 1.343 0 3H2C2 2.448 2.448 2 3 2V0Z" fill="#2C2C2C"/>
</svg>
