<svg width="20" height="19" viewBox="0 0 20 19" fill="none" xmlns="http://www.w3.org/2000/svg">
<path d="M12.8594 8.53125L11.4062 9.98438L18.2969 16.875L16.8906 18.2812L10 11.3906L3.10938 18.2812L1.70312 16.875L11.4531 7.125C11.0781 6.375 11.0156 5.5 11.2656 4.5C11.5469 3.5 12.0781 2.60938 12.8594 1.82812C13.8281 0.859373 14.9062 0.312498 16.0938 0.187498C17.2812 0.0312478 18.2344 0.312498 18.9531 1.03125C19.6719 1.75 19.9531 2.71875 19.7969 3.9375C19.6719 5.125 19.125 6.20312 18.1562 7.17188C17.375 7.95312 16.4844 8.46875 15.4844 8.71875C14.4844 8.96875 13.6094 8.90625 12.8594 8.53125ZM6.10938 10.3594L1.89062 6.14062C1.10938 5.35938 0.71875 4.42188 0.71875 3.32812C0.71875 2.23438 1.10938 1.29688 1.89062 0.515623L8.9219 7.5L6.10938 10.3594Z" fill="#2C2C2C" fill-opacity="0.9"/>
</svg>
