<svg width="16" height="16" viewBox="0 0 16 16" fill="none" xmlns="http://www.w3.org/2000/svg">
<path fill-rule="evenodd" clip-rule="evenodd" d="M12.2787 2.64899C9.2349 -0.0200111 6.1569 0.080987 3.2533 2.74999C3.2087 2.81599 3.2087 2.87398 3.2533 2.92298C3.2771 2.94898 3.3019 2.97698 3.3277 3.00598C2.4336 3.98198 1.7422 5.31399 1.3946 7.00099L1.408 6.99999C0.598301 7.27199 0 8.23399 0 9.37799C0 10.733 0.8406 11.833 1.8776 11.833C1.955 11.833 2.0238 11.826 2.085 11.815C2.2051 11.909 2.3568 11.965 2.5215 11.965C2.9123 11.965 3.229 11.648 3.229 11.258V7.31798C3.229 6.92798 2.9123 6.61098 2.5215 6.61098C2.3503 6.61098 2.1932 6.67198 2.0708 6.77298C2.4188 5.59098 3.0978 4.55599 3.9693 3.76599L4.0015 3.80399C4.0294 3.83599 4.0699 3.83599 4.1231 3.80399C5.7813 2.74999 6.6268 2.32999 7.8659 2.32999C9.1051 2.32999 9.7011 2.52099 11.3205 3.60399C11.3876 3.65599 11.451 3.65599 11.5106 3.60399L11.5712 3.55199C12.3643 4.26799 13.0735 5.27799 13.6313 6.62799C13.5821 6.61699 13.5309 6.61098 13.4785 6.61098C13.0877 6.61098 12.771 6.92798 12.771 7.31798V11.268C12.771 11.513 12.8958 11.729 13.0853 11.856C11.894 12.733 10.6253 13.589 9.2755 14.076L9.2742 14.083C9.1609 13.843 8.9015 13.695 8.6255 13.734L7.0384 13.959C6.6976 14.008 6.4602 14.323 6.5076 14.664L6.5079 14.665C6.5561 15.005 6.8705 15.241 7.2101 15.193L8.7972 14.968C9.0904 14.926 9.307 14.687 9.3316 14.404C10.5638 14.036 12.5232 12.95 13.7689 11.931L13.738 11.926C13.8063 11.899 13.8693 11.862 13.9253 11.816C13.9838 11.827 14.0493 11.833 14.1224 11.833C15.1594 11.833 16 10.733 16 9.37799C16 8.17299 15.3368 7.17098 14.462 6.96298C14.0106 5.24098 13.2209 3.89199 12.2436 2.91699L12.2787 2.87998C12.3199 2.83598 12.3199 2.75899 12.2787 2.64899Z" fill="#2C2C2C"/>
</svg>
