<svg width="34" height="34" viewBox="0 0 34 34" fill="none" xmlns="http://www.w3.org/2000/svg">
<path d="M15.594 15.5938C15.99 15.1979 16.458 15 17 15C17.542 15 18.01 15.1979 18.406 15.5938C18.802 15.9896 19 16.4583 19 17C19 17.5417 18.802 18.0104 18.406 18.4062C18.01 18.8021 17.542 19 17 19C16.458 19 15.99 18.8021 15.594 18.4062C15.198 18.0104 15 17.5417 15 17C15 16.4583 15.198 15.9896 15.594 15.5938ZM14.625 19.375C15.292 20.0208 16.083 20.3438 17 20.3438C17.917 20.3438 18.698 20.0208 19.344 19.375C20.01 18.7083 20.344 17.9167 20.344 17C20.344 16.0833 20.01 15.3021 19.344 14.6562C18.698 13.9896 17.917 13.6562 17 13.6562C16.083 13.6562 15.292 13.9896 14.625 14.6562C13.979 15.3021 13.656 16.0833 13.656 17C13.656 17.9167 13.979 18.7083 14.625 19.375ZM12.531 13.375C13.865 12.4583 15.354 12 17 12C18.646 12 20.135 12.4583 21.469 13.375C22.802 14.2917 23.76 15.5 24.344 17C23.76 18.5 22.802 19.7083 21.469 20.625C20.135 21.5417 18.646 22 17 22C15.354 22 13.865 21.5417 12.531 20.625C11.198 19.7083 10.24 18.5 9.65601 17C10.24 15.5 11.198 14.2917 12.531 13.375Z" fill="#2C2C2C"/>
<path d="M3 2H31V0H3V2ZM32 3V31H34V3H32ZM31 32H3V34H31V32ZM2 31V3H0V31H2ZM3 32C2.448 32 2 31.552 2 31H0C0 32.657 1.343 34 3 34V32ZM32 31C32 31.552 31.552 32 31 32V34C32.657 34 34 32.657 34 31H32ZM31 2C31.552 2 32 2.4477 32 3H34C34 1.3431 32.657 0 31 0V2ZM3 0C1.343 0 0 1.3431 0 3H2C2 2.4477 2.448 2 3 2V0Z" fill="#2C2C2C"/>
</svg>
