<svg width="18" height="16" viewBox="0 0 18 16" fill="none" xmlns="http://www.w3.org/2000/svg">
<path d="M2.01562 6.01559H15.9844L14.4844 1.51559H3.51562L2.01562 6.01559ZM13.4062 10.5625C13.7188 10.8438 14.0781 10.9844 14.4844 10.9844C14.8906 10.9844 15.2344 10.8438 15.5156 10.5625C15.8281 10.25 15.9844 9.89059 15.9844 9.48439C15.9844 9.07809 15.8281 8.73439 15.5156 8.45309C15.2344 8.14059 14.8906 7.98439 14.4844 7.98439C14.0781 7.98439 13.7188 8.14059 13.4062 8.45309C13.125 8.73439 12.9844 9.07809 12.9844 9.48439C12.9844 9.89059 13.125 10.25 13.4062 10.5625ZM2.4375 10.5625C2.75 10.8438 3.10938 10.9844 3.51562 10.9844C3.92188 10.9844 4.26562 10.8438 4.54688 10.5625C4.85938 10.25 5.01562 9.89059 5.01562 9.48439C5.01562 9.07809 4.85938 8.73439 4.54688 8.45309C4.26562 8.14059 3.92188 7.98439 3.51562 7.98439C3.10938 7.98439 2.75 8.14059 2.4375 8.45309C2.15625 8.73439 2.01562 9.07809 2.01562 9.48439C2.01562 9.89059 2.15625 10.25 2.4375 10.5625ZM15.9375 0.999992L18 6.99999V15.0156C18 15.2969 17.9062 15.5312 17.7188 15.7188C17.5312 15.9062 17.2969 16 17.0156 16H15.9844C15.7031 16 15.4688 15.9062 15.2812 15.7188C15.0938 15.5312 15 15.2969 15 15.0156V13.9844H3V15.0156C3 15.2969 2.90625 15.5312 2.71875 15.7188C2.53125 15.9062 2.29688 16 2.01562 16H0.98438C0.70312 16 0.46875 15.9062 0.28125 15.7188C0.09375 15.5312 0 15.2969 0 15.0156V6.99999L2.0625 0.999992C2.25 0.343792 2.73438 0.0155945 3.51562 0.0155945H14.4844C15.2656 0.0155945 15.75 0.343792 15.9375 0.999992Z" fill="#2C2C2C" fill-opacity="0.9"/>
</svg>
