<svg width="24" height="16" viewBox="0 0 24 16" fill="none" xmlns="http://www.w3.org/2000/svg">
<path d="M18.9844 1.98399C20.0781 1.98399 21.0156 2.391 21.7969 3.203C22.6094 3.984 23.0156 4.92201 23.0156 6.01601V15.016H21V12.016H3V15.016H0.984375V0.0160065H3V9.01601H11.0156V1.98399H18.9844ZM9.09375 7.09399C8.5 7.68799 7.79688 7.98399 6.98438 7.98399C6.17188 7.98399 5.46875 7.68799 4.875 7.09399C4.28125 6.49999 3.98438 5.79699 3.98438 4.98399C3.98438 4.17199 4.28125 3.469 4.875 2.875C5.46875 2.281 6.17188 1.98399 6.98438 1.98399C7.79688 1.98399 8.5 2.281 9.09375 2.875C9.6875 3.469 9.98438 4.17199 9.98438 4.98399C9.98438 5.79699 9.6875 6.49999 9.09375 7.09399Z" fill="#2C2C2C" fill-opacity="0.9"/>
</svg>
