<svg width="34" height="34" viewBox="0 0 34 34" fill="none" xmlns="http://www.w3.org/2000/svg">
<path d="M22.344 14.344V13L17 16.344L11.656 13V14.344L17 17.656L22.344 14.344ZM22.344 11.656C22.698 11.656 23 11.792 23.25 12.062C23.521 12.333 23.656 12.646 23.656 13V21C23.656 21.354 23.521 21.667 23.25 21.938C23 22.208 22.698 22.344 22.344 22.344H11.656C11.302 22.344 10.99 22.208 10.719 21.938C10.469 21.667 10.344 21.354 10.344 21V13C10.344 12.646 10.469 12.333 10.719 12.062C10.99 11.792 11.302 11.656 11.656 11.656H22.344Z" fill="#2C2C2C"/>
<path d="M3 2H31V0H3V2ZM32 3V31H34V3H32ZM31 32H3V34H31V32ZM2 31V3H0V31H2ZM3 32C2.448 32 2 31.552 2 31H0C0 32.657 1.343 34 3 34V32ZM32 31C32 31.552 31.552 32 31 32V34C32.657 34 34 32.657 34 31H32ZM31 2C31.552 2 32 2.448 32 3H34C34 1.343 32.657 0 31 0V2ZM3 0C1.343 0 0 1.343 0 3H2C2 2.448 2.448 2 3 2V0Z" fill="#2C2C2C"/>
</svg>
