<svg width="16" height="10" viewBox="0 0 16 10" fill="none" xmlns="http://www.w3.org/2000/svg">
<path d="M10.656 5.65601C11.24 5.65601 11.875 5.74001 12.562 5.90601C13.25 6.07301 13.885 6.34399 14.469 6.71899C15.052 7.09399 15.344 7.521 15.344 8V9.65601H11.344V8C11.344 7.083 10.906 6.312 10.031 5.688C10.177 5.667 10.385 5.65601 10.656 5.65601ZM3.43799 5.90601C4.12499 5.74001 4.75999 5.65601 5.34399 5.65601C5.92699 5.65601 6.562 5.74001 7.25 5.90601C7.938 6.07301 8.562 6.34399 9.125 6.71899C9.708 7.09399 10 7.521 10 8V9.65601H0.656006V8C0.656006 7.521 0.948006 7.09399 1.53101 6.71899C2.11501 6.34399 2.74999 6.07301 3.43799 5.90601ZM6.71899 3.75C6.34399 4.146 5.88499 4.34399 5.34399 4.34399C4.80199 4.34399 4.33299 4.146 3.93799 3.75C3.54199 3.354 3.34399 2.88499 3.34399 2.34399C3.34399 1.80199 3.54199 1.333 3.93799 0.938004C4.33299 0.542004 4.80199 0.343994 5.34399 0.343994C5.88499 0.343994 6.34399 0.542004 6.71899 0.938004C7.11499 1.333 7.31201 1.80199 7.31201 2.34399C7.31201 2.88499 7.11499 3.354 6.71899 3.75ZM12.062 3.75C11.667 4.146 11.198 4.34399 10.656 4.34399C10.115 4.34399 9.646 4.146 9.25 3.75C8.854 3.354 8.65601 2.88499 8.65601 2.34399C8.65601 1.80199 8.854 1.333 9.25 0.938004C9.646 0.542004 10.115 0.343994 10.656 0.343994C11.198 0.343994 11.667 0.542004 12.062 0.938004C12.458 1.333 12.656 1.80199 12.656 2.34399C12.656 2.88499 12.458 3.354 12.062 3.75Z" fill="#2C2C2C"/>
</svg>
